<?xml version="1.0" encoding="UTF-8" standalone="no"?>
<svg
   xmlns:dc="http://purl.org/dc/elements/1.1/"
   xmlns:cc="http://creativecommons.org/ns#"
   xmlns:rdf="http://www.w3.org/1999/02/22-rdf-syntax-ns#"
   xmlns:svg="http://www.w3.org/2000/svg"
   xmlns="http://www.w3.org/2000/svg"
   viewBox="0 0 253.34375 216.14751"
   height="216.14751"
   width="253.34375"
   xml:space="preserve"
   version="1.1"
   id="svg2"><metadata
     id="metadata8"><rdf:RDF><cc:Work
         rdf:about=""><dc:format>image/svg+xml</dc:format><dc:type
           rdf:resource="http://purl.org/dc/dcmitype/StillImage" /><dc:title></dc:title></cc:Work></rdf:RDF></metadata><defs
     id="defs6"><clipPath
       id="clipPath20"
       clipPathUnits="userSpaceOnUse"><path
         id="path22"
         d="m 0,172.918 202.675,0 L 202.675,0 0,0 0,172.918 Z" /></clipPath></defs><g
     transform="matrix(1.25,0,0,-1.25,0,216.1475)"
     id="g10"><g
       transform="translate(22.8047,87.0417)"
       id="g12"><path
         id="path14"
         style="fill:#162d66;fill-opacity:1;fill-rule:nonzero;stroke:none"
         d="m 0,0 15.898,0 0,-5.062 -9.918,0 0,-14.057 8.797,0 0,-5.062 -8.797,0 0,-15.152 9.918,0 0,-5.058 L 0,-44.391 0,0 Z" /></g><g
       id="g16"><g
         clip-path="url(#clipPath20)"
         id="g18"><g
           transform="translate(44.1949,87.0417)"
           id="g24"><path
             id="path26"
             style="fill:#162d66;fill-opacity:1;fill-rule:nonzero;stroke:none"
             d="m 0,0 5.864,0 0,-31.367 c 0,-3.204 0.288,-5.331 0.863,-6.383 0.594,-1.054 1.764,-1.583 3.508,-1.583 1.744,0 2.894,0.461 3.451,1.379 0.574,0.941 0.861,2.848 0.861,5.724 l 0,32.23 5.866,0 0,-32.23 c 0,-4.83 -0.737,-8.099 -2.214,-9.806 -1.764,-1.935 -4.456,-2.903 -8.078,-2.903 -3.988,0 -6.795,1.246 -8.425,3.738 C 0.564,-39.497 0,-36.219 0,-31.367 L 0,0 Z" /></g><g
           transform="translate(82.0879,65.9963)"
           id="g28"><path
             id="path30"
             style="fill:#162d66;fill-opacity:1;fill-rule:nonzero;stroke:none"
             d="m 0,0 10.869,0 0,-1.726 c 0,-8.645 -0.757,-14.48 -2.271,-17.51 -1.495,-3.105 -4.295,-4.658 -8.395,-4.658 -4.237,0 -7.256,1.726 -9.057,5.177 -1.783,3.447 -2.675,9.245 -2.675,17.394 0,9.316 0.979,15.516 2.933,18.602 1.84,2.894 4.667,4.342 8.482,4.342 2.912,0 5.184,-0.703 6.813,-2.1 1.649,-1.419 2.933,-3.748 3.853,-6.985 L 4.974,10.204 c -0.249,1.169 -0.527,2.152 -0.833,2.95 -0.307,0.795 -0.642,1.413 -1.007,1.853 -0.728,0.902 -1.821,1.35 -3.278,1.35 -1.993,0 -3.353,-1.227 -4.081,-3.679 -0.729,-2.57 -1.093,-7.177 -1.093,-13.828 0,-6.729 0.374,-11.281 1.121,-13.659 0.748,-2.375 2.156,-3.565 4.226,-3.565 1.898,0 3.23,0.845 3.997,2.533 0.786,1.799 1.178,4.694 1.178,8.68 l 0,1.209 0,0.89 L 0,-5.062 0,0 Z" /></g><g
           transform="translate(113.7149,86.1203)"
           id="g32"><path
             id="path34"
             style="fill:#162d66;fill-opacity:1;fill-rule:nonzero;stroke:none"
             d="m 0,0 0,-5.835 c -1.821,1.302 -3.46,1.954 -4.916,1.954 -1.573,0 -2.856,-0.556 -3.854,-1.667 -0.997,-1.054 -1.495,-2.464 -1.495,-4.226 0,-1.553 0.355,-2.885 1.064,-3.996 0.364,-0.596 0.964,-1.363 1.797,-2.3 0.835,-0.94 1.913,-2.072 3.234,-3.392 2.436,-2.475 4.093,-4.611 4.974,-6.414 0.883,-1.743 1.324,-3.88 1.324,-6.409 0,-3.433 -0.969,-6.259 -2.904,-8.483 -1.937,-2.168 -4.418,-3.25 -7.448,-3.25 -2.549,0 -4.724,0.7 -6.526,2.1 l 0,5.922 c 2.128,-1.553 4.063,-2.328 5.808,-2.328 1.63,0 2.905,0.541 3.825,1.623 0.92,1.085 1.379,2.554 1.379,4.416 0,1.607 -0.355,3.055 -1.064,4.341 -0.363,0.612 -0.872,1.317 -1.523,2.112 -0.653,0.795 -1.467,1.682 -2.445,2.659 -1.513,1.496 -2.77,2.818 -3.765,3.967 -0.998,1.15 -1.736,2.159 -2.215,3.021 -0.919,1.686 -1.379,3.813 -1.379,6.382 0,3.47 0.9,6.219 2.703,8.25 1.82,2.051 4.264,3.077 7.33,3.077 C -3.967,1.524 -1.937,1.017 0,0" /></g><g
           transform="translate(118.0567,87.0417)"
           id="g36"><path
             id="path38"
             style="fill:#162d66;fill-opacity:1;fill-rule:nonzero;stroke:none"
             d="m 0,0 19.464,0 0,-5.232 -6.699,0 0,-39.159 -5.865,0 0,39.159 -6.9,0 L 0,0 Z" /></g><g
           transform="translate(140.8272,87.0417)"
           id="g40"><path
             id="path42"
             style="fill:#162d66;fill-opacity:1;fill-rule:nonzero;stroke:none"
             d="m 0,0 15.898,0 0,-5.062 -9.918,0 0,-14.057 8.797,0 0,-5.062 -8.797,0 0,-15.152 9.918,0 0,-5.058 L 0,-44.391 0,0 Z" /></g><g
           transform="translate(168.1973,67.3752)"
           id="g44"><path
             id="path46"
             style="fill:#162d66;fill-opacity:1;fill-rule:nonzero;stroke:none"
             d="m 0,0 c 2.319,0 3.958,0.535 4.917,1.611 0.959,1.074 1.437,2.885 1.437,5.433 0,1.379 -0.101,2.56 -0.302,3.538 -0.201,0.977 -0.517,1.772 -0.948,2.384 -0.431,0.615 -0.988,1.063 -1.668,1.351 -0.68,0.287 -1.491,0.433 -2.429,0.433 L 0,14.75 0,0 Z m -5.979,19.667 7.876,0 c 3.259,0 5.686,-0.776 7.275,-2.329 2.013,-2.013 3.021,-5.09 3.021,-9.23 0,-3.182 -0.532,-5.736 -1.598,-7.663 C 9.53,-1.481 8.013,-2.675 6.038,-3.132 l 8.165,-21.593 -6.064,0 L 0,-2.99 l 0,-21.735 -5.979,0 0,44.392 z" /></g><g
           transform="translate(24.7417,22.2991)"
           id="g48"><path
             id="path50"
             style="fill:#2fa873;fill-opacity:1;fill-rule:nonzero;stroke:none"
             d="m 0,0 2.646,0 c 2.05,0 2.756,1.39 2.756,2.913 0,2.158 -1.39,2.996 -3.088,2.996 L 0,5.909 0,0 Z m 0,7.364 2.228,0 c 0.814,0 2.666,0.199 2.666,2.626 0,1.633 -0.815,2.579 -2.712,2.579 L 0,12.569 0,7.364 Z m -1.941,6.794 4.829,0 c 2.051,0 4.035,-0.971 4.035,-4.037 0,-1.433 -0.86,-2.866 -2.292,-3.283 l 0,-0.047 C 6.57,6.33 7.43,4.854 7.43,2.913 c 0,-3.2 -1.807,-4.499 -5.094,-4.499 l -4.277,0 0,15.744 z" /></g><g
           transform="translate(38.5762,26.6233)"
           id="g52"><path
             id="path54"
             style="fill:#2fa873;fill-opacity:1;fill-rule:nonzero;stroke:none"
             d="M 0,0 4.233,0 2.228,7.606 2.184,7.606 0,0 Z m 0.949,9.834 2.601,0 4.233,-15.744 -2.028,0 -1.124,4.321 -5.028,0 -1.168,-4.321 -2.028,0 4.542,15.744 z" /></g><g
           transform="translate(49.4795,36.4573)"
           id="g56"><path
             id="path58"
             style="fill:#2fa873;fill-opacity:1;fill-rule:nonzero;stroke:none"
             d="m 0,0 1.94,0 0,-11.071 c 0,-2.315 0.75,-3.396 2.667,-3.396 2.073,0 2.692,1.194 2.692,3.396 l 0,11.071 1.939,0 0,-11.071 c 0,-3.019 -1.544,-4.982 -4.631,-4.982 -3.152,0 -4.607,1.742 -4.607,4.982 L 0,0 Z" /></g><g
           transform="translate(65.4307,22.2991)"
           id="g60"><path
             id="path62"
             style="fill:#2fa873;fill-opacity:1;fill-rule:nonzero;stroke:none"
             d="m 0,0 2.029,0 c 3.351,0 3.726,3.442 3.726,6.265 0,3.04 -0.198,6.304 -3.726,6.304 L 0,12.569 0,0 Z m -1.941,14.158 4.212,0 c 4.895,0 5.512,-3.529 5.512,-7.872 0,-3.969 -0.992,-7.872 -5.313,-7.872 l -4.411,0 0,15.744 z" /></g><path
           id="path64"
           style="fill:#2fa873;fill-opacity:1;fill-rule:nonzero;stroke:none"
           d="m 77.743,36.457 1.941,0 0,-15.744 -1.941,0 0,15.744 z" /><g
           transform="translate(86.5796,26.6233)"
           id="g66"><path
             id="path68"
             style="fill:#2fa873;fill-opacity:1;fill-rule:nonzero;stroke:none"
             d="M 0,0 4.233,0 2.227,7.606 2.184,7.606 0,0 Z m 0.948,9.834 2.601,0 4.234,-15.744 -2.028,0 -1.125,4.321 -5.027,0 -1.168,-4.321 -2.029,0 4.542,15.744 z" /></g><g
           transform="translate(105.1328,32.0901)"
           id="g70"><path
             id="path72"
             style="fill:#2fa873;fill-opacity:1;fill-rule:nonzero;stroke:none"
             d="m 0,0 c -0.088,1.654 -0.705,3.087 -2.624,3.087 -2.69,0 -3.042,-2.953 -3.042,-6.592 0,-3.639 0.352,-6.595 3.042,-6.595 2.691,0 2.89,3.222 2.89,5.315 l -3.11,0 0,1.589 4.872,0 0,-8.181 -1.455,0 0,2.138 -0.043,0 c -0.419,-1.343 -1.676,-2.447 -3.395,-2.447 -4.102,0 -4.83,3.948 -4.83,8.181 0,3.969 0.728,8.181 5.071,8.181 4.52,0 4.631,-3.86 4.652,-4.676 L 0,0 Z" /></g><g
           transform="translate(111.6905,36.4573)"
           id="g74"><path
             id="path76"
             style="fill:#2fa873;fill-opacity:1;fill-rule:nonzero;stroke:none"
             d="m 0,0 2.515,0 5.203,-13.143 0.044,0 0,13.143 1.94,0 0,-15.744 -2.668,0 -5.05,12.744 -0.043,0 0,-12.744 -1.941,0 L 0,0 Z" /></g><g
           transform="translate(127.9522,28.5852)"
           id="g78"><path
             id="path80"
             style="fill:#2fa873;fill-opacity:1;fill-rule:nonzero;stroke:none"
             d="m 0,0 c 0,-3.639 0.352,-6.595 3.042,-6.595 2.691,0 3.043,2.956 3.043,6.595 0,3.639 -0.352,6.592 -3.043,6.592 C 0.352,6.592 0,3.639 0,0 m 8.113,0 c 0,-3.969 -0.727,-8.181 -5.071,-8.181 -4.343,0 -5.072,4.212 -5.072,8.181 0,3.969 0.729,8.181 5.072,8.181 4.344,0 5.071,-4.212 5.071,-8.181" /></g><g
           transform="translate(147.2754,32.3762)"
           id="g82"><path
             id="path84"
             style="fill:#2fa873;fill-opacity:1;fill-rule:nonzero;stroke:none"
             d="m 0,0 c 0,1.654 -0.595,2.801 -2.447,2.801 -1.632,0 -2.601,-0.882 -2.601,-2.558 0,-4.432 7.43,-1.785 7.43,-7.542 0,-3.638 -2.669,-4.673 -4.895,-4.673 -3.681,0 -4.762,1.895 -4.762,5.246 l 1.94,0 c 0,-1.762 0.109,-3.66 2.955,-3.66 1.542,0 2.734,1.103 2.734,2.78 0,4.454 -7.432,1.875 -7.432,7.65 0,1.455 0.619,4.346 4.609,4.346 C 0.529,4.39 1.897,2.888 1.94,0 L 0,0 Z" /></g><g
           transform="translate(158.5977,20.7131)"
           id="g86"><path
             id="path88"
             style="fill:#2fa873;fill-opacity:1;fill-rule:nonzero;stroke:none"
             d="m 0,0 -1.941,0 0,14.021 -3.947,0 0,1.723 9.857,0 0,-1.723 L 0,14.021 0,0 Z" /></g><path
           id="path90"
           style="fill:#2fa873;fill-opacity:1;fill-rule:nonzero;stroke:none"
           d="m 166.216,36.457 1.94,0 0,-15.744 -1.94,0 0,15.744 z" /><g
           transform="translate(172.9131,36.4573)"
           id="g92"><path
             id="path94"
             style="fill:#2fa873;fill-opacity:1;fill-rule:nonzero;stroke:none"
             d="m 0,0 1.94,0 0,-7.629 0.044,0 L 7.432,0 9.593,0 4.83,-6.573 l 5.159,-9.171 -2.159,0 -4.259,7.586 -1.631,-2.228 0,-5.358 -1.94,0 L 0,0 Z" /></g><g
           transform="translate(162.792,134.6921)"
           id="g96"><path
             id="path98"
             style="fill:#5799d8;fill-opacity:1;fill-rule:nonzero;stroke:none"
             d="m 0,0 -1.072,0 c -0.162,6.85 -5.784,12.372 -12.673,12.372 -1.685,0 -3.336,-0.332 -4.871,-0.972 -3.33,5.736 -9.481,9.337 -16.226,9.337 -10.346,0 -18.763,-8.418 -18.763,-18.764 0,-0.66 0.034,-1.318 0.103,-1.973 l -3.067,0 c -0.632,0 -1.248,-0.064 -1.855,-0.161 l 4.321,-4.026 3.092,0 c 0.646,0 1.255,0.297 1.652,0.806 0.396,0.508 0.536,1.172 0.38,1.797 -0.292,1.16 -0.44,2.357 -0.44,3.557 0,8.037 6.539,14.576 14.577,14.576 5.829,0 11.087,-3.461 13.394,-8.819 0.243,-0.567 0.726,-0.998 1.318,-1.176 0.593,-0.179 1.233,-0.086 1.749,0.252 1.381,0.902 2.985,1.379 4.636,1.379 4.681,0 8.489,-3.809 8.489,-8.489 0,-0.472 -0.042,-0.956 -0.124,-1.438 -0.103,-0.608 0.066,-1.231 0.464,-1.702 0.397,-0.472 0.983,-0.743 1.6,-0.743 l 3.316,0 c 4.179,0 7.579,-3.4 7.579,-7.58 0,-4.178 -3.4,-7.578 -7.579,-7.578 l -22.76,0 c -0.84,0 -1.598,-0.502 -1.927,-1.275 -1.334,-3.143 -4.403,-5.173 -7.817,-5.173 -3.414,0 -6.481,2.03 -7.816,5.173 -0.329,0.773 -1.088,1.275 -1.928,1.275 l -10.648,0 5.011,-4.187 4.338,0 c 2.229,-3.959 6.425,-6.448 11.043,-6.448 4.619,0 8.815,2.489 11.044,6.448 l 21.46,0 c 6.488,0 11.766,5.278 11.766,11.766 C 11.766,-5.278 6.488,0 0,0" /></g><path
           id="path100"
           style="fill:#5799d8;fill-opacity:1;fill-rule:nonzero;stroke:none"
           d="m 81.051,107.53 -10.94,0 0,10.94 10.94,0 0,-10.94 z" /><path
           id="path102"
           style="fill:#5799d8;fill-opacity:1;fill-rule:nonzero;stroke:none"
           d="m 81.051,94.345 -10.94,0 0,10.94 10.94,0 0,-10.94 z" /><path
           id="path104"
           style="fill:#5799d8;fill-opacity:1;fill-rule:nonzero;stroke:none"
           d="m 94.656,107.53 -10.94,0 0,10.94 10.94,0 0,-10.94 z" /><path
           id="path106"
           style="fill:#5799d8;fill-opacity:1;fill-rule:nonzero;stroke:none"
           d="m 94.656,94.345 -10.94,0 0,10.94 10.94,0 0,-10.94 z" /><g
           transform="translate(115.2461,119.031)"
           id="g108"><path
             id="path110"
             style="fill:#2fa873;fill-opacity:1;fill-rule:nonzero;stroke:none"
             d="m 0,0 -26.903,24.404 0.002,0.001 -0.004,0 -4.485,4.068 -4.769,-4.068 -23.283,-21.122 0,14.951 -7.293,0 0,-21.568 -23.845,-21.632 9.258,0 L -31.53,20.207 -9.257,0 0,0 Z" /></g></g></g></g></svg>